<svg xmlns="http://www.w3.org/2000/svg" width="592" height="277.561" viewBox="0 0 592 277.561"><g fill="#ff0b4f"><path d="M34.263 87.443V74.118h-16.18V52.585h12.254V39.736H18.083V19.749H33.55V6.543H3.093v80.9Z"/><path/><path d="M98.031 87.443 84.35 6.543H66.98L53.3 87.443h15.109l1.784-15.823h10.35l1.547 15.823ZM79.115 59.96h-7.614l3.093-24.984c.357-3.093.714-10.47.714-10.47s.357 7.377.714 10.47Z"/><path/><path d="M158.35 85.183V46.755h-18.917V58.89h5.591V75.19s-1.19.357-2.379.357c-6.424 0-8.209-10.945-8.209-29.743 0-14.87 2.617-26.53 9.16-26.53 4.165 0 9.518 2.38 13.206 4.759l1.428-14.157c-3.212-2.26-8.566-4.402-14.871-4.402-18.797 0-24.508 17.25-24.508 42.948 0 24.746 4.878 40.093 21.89 40.093 4.402 0 7.615-.714 10.708-1.428 2.26-.714 4.64-1.547 6.9-1.903M208.554 87.443c-4.758-31.884-6.305-36.167-9.993-38.07 3.45-2.142 7.614-9.875 7.614-21.89 0-12.73-5.71-21.535-19.154-21.535-8.923 0-19.154.595-19.154.595v80.9h14.87V54.964h3.689c1.904.952 2.974 4.045 6.305 32.479Zm-17.607-57.344c0 7.02-1.547 10.946-2.974 13.087h-5.235v-25.34h1.666c4.401 0 6.543 4.64 6.543 12.253M231.992 87.443v-80.9h-15.586v80.9ZM281.483 30.1c0-14.99-6.9-24.152-20.344-24.152-8.923 0-18.202.595-18.202.595v80.9h14.99V59.128h2.736c12.135 0 20.82-10.826 20.82-29.029m-15.11 1.427c0 9.28-2.617 14.871-6.9 14.871h-1.546V18.083h1.666c4.64 0 6.78 5.235 6.78 13.444M320.624 87.443V74.118h-16.18V52.585h12.254V39.736h-12.254V19.749h15.466V6.543h-30.456v80.9Z"/><path/></g><g fill="#ff0b4f"><path d="m43.424 180.596-13.681-80.9h-17.37l-13.682 80.9h15.11l1.784-15.823h10.35l1.547 15.823Zm-18.916-27.482h-7.614l3.093-24.983c.357-3.094.714-10.47.714-10.47s.357 7.376.714 10.47ZM77.33 113.14V99.697H42.473v13.443h9.756v67.456h15.466V113.14ZM125.156 180.596c-4.758-31.884-6.305-36.166-9.993-38.07 3.45-2.141 7.614-9.874 7.614-21.89 0-12.73-5.71-21.534-19.154-21.534-8.923 0-19.154.595-19.154.595v80.9H99.34v-32.48h3.688c1.904.952 2.974 4.046 6.305 32.48Zm-17.607-57.343c0 7.02-1.547 10.945-2.974 13.087H99.34v-25.341h1.666c4.401 0 6.543 4.64 6.543 12.254M173.34 180.596l-13.682-80.9h-17.37l-13.681 80.9h15.109l1.784-15.823h10.35l1.547 15.823Zm-18.917-27.482h-7.614l3.093-24.983c.357-3.094.714-10.47.714-10.47s.357 7.376.714 10.47ZM218.429 123.253c0-14.99-6.9-24.151-20.344-24.151-8.923 0-18.202.595-18.202.595v80.9h14.99v-28.315h2.736c12.135 0 20.82-10.827 20.82-29.03m-15.11 1.428c0 9.28-2.617 14.87-6.9 14.87h-1.546v-28.314h1.665c4.64 0 6.782 5.235 6.782 13.444M262.567 180.596l-13.682-80.9h-17.37l-13.68 80.9h15.108l1.785-15.823h10.35l1.547 15.823Zm-18.916-27.482h-7.615l3.094-24.983c.357-3.094.714-10.47.714-10.47s.356 7.376.713 10.47ZM298.496 180.596V166.32h-13.92V99.697H269.11v80.9ZM345.25 180.596v-80.9h-15.108v32.48h-9.756v-32.48h-15.109v80.9h15.11v-34.62h9.755v34.62ZM397.122 139.552c0-23.913-4.045-40.926-20.225-40.926-17.37 0-22.485 17.489-22.485 42.116 0 23.912 4.164 40.925 20.462 40.925 17.251 0 22.248-17.488 22.248-42.115m-15.704 1.784c0 15.466-1.666 27.363-5.592 27.363-4.64 0-5.71-11.897-5.71-29.742 0-15.466 1.665-27.363 5.71-27.363 4.402 0 5.592 11.897 5.592 29.742M446.613 157.278V99.697h-15.109v58.414c0 7.614-1.665 10.113-4.878 10.113-3.45 0-5.115-2.618-5.115-10.708v-57.82h-15.466v59.605c0 14.395 5.948 22.366 19.51 22.366 14.872 0 21.058-7.614 21.058-24.389"/></g><g fill="#ff0b4f"><path d="M33.787 252.097c0-18.559-17.726-28.91-17.726-41.163 0-3.45 1.785-5.83 4.759-5.83 3.45 0 7.97 1.785 10.707 3.57l1.07-13.444c-3.33-2.023-7.613-3.45-13.562-3.45-12.373 0-18.321 9.517-18.321 20.344 0 19.392 17.607 29.385 17.607 41.52 0 5.473-2.379 7.614-5.591 7.614-3.688 0-8.21-2.26-11.54-5.354L-.238 270.3c3.57 2.617 8.566 4.52 14.633 4.52 12.492 0 19.392-9.16 19.392-22.723M73.048 273.75v-13.325h-16.18v-21.533h12.254v-12.849H56.868v-19.987h15.466V192.85H41.877v80.9ZM120.755 250.432V192.85h-15.11v58.415c0 7.614-1.665 10.112-4.877 10.112-3.45 0-5.116-2.617-5.116-10.707v-57.82H80.186v59.604c0 14.396 5.948 22.367 19.51 22.367 14.872 0 21.059-7.614 21.059-24.39"/><path/><path d="M188.33 230.92c0-24.27-5.592-38.783-23.2-38.783-8.803 0-17.488.713-17.488.713v80.9s8.209.357 15.585.357c18.083 0 25.103-15.704 25.103-43.186m-15.586 2.023c0 16.418-2.141 27.958-8.446 27.958h-1.547v-55.678h1.428c6.186 0 8.565 10.35 8.565 27.72M213.075 273.75v-80.9H197.49v80.9ZM264.351 273.75l-13.681-80.9H233.3l-13.681 80.9h15.109l1.784-15.823h10.35l1.547 15.823Zm-18.916-27.482h-7.614l3.093-24.984c.357-3.093.714-10.47.714-10.47s.357 7.377.714 10.47ZM299.923 210.458c0-12.73-6.543-18.678-15.585-18.678-6.067 0-11.54 2.379-15.109 6.067l1.309 12.968c2.855-3.093 6.662-5.354 9.755-5.354 2.856 0 4.997 2.499 4.997 7.02 0 11.064-10.588 13.205-10.588 25.935 0 4.52 1.19 9.28 2.141 11.778h8.566s-.119-2.498-.119-4.64c0-12.968 14.633-16.06 14.633-35.096m-10.35 54.488c0-5.591-3.807-9.993-8.447-9.993s-8.09 4.402-8.09 9.993c0 5.473 3.45 9.994 8.09 9.994s8.447-4.521 8.447-9.994"/></g></svg>