<svg xmlns="http://www.w3.org/2000/svg" width="1211.723" height="482.635" viewBox="0 0 1211.723 482.635"><g fill="#ff0b4f"><path d="M160.356 72.714c0-45.747-31.3-73.196-73.195-73.196S13.965 26.967 13.965 72.714v233.07c0 45.748 31.3 73.196 73.196 73.196 41.894 0 73.195-27.449 73.195-73.196v-81.382c0-2.889-1.444-4.334-4.815-4.334h-50.082c-3.37 0-4.815 1.445-4.815 4.334v84.272c0 17.817-27.448 17.817-27.448 0V69.824c0-17.335 27.448-17.335 27.448 0v65.973c0 3.37 1.445 4.816 4.815 4.816h50.082c3.37 0 4.815-1.445 4.815-4.816zM273.52 209.956c1.445 0 1.927.481 1.927 1.926v159.875q0 4.334 4.334 4.334h50.562q4.334 0 4.334-4.334V7.223c0-3.37-1.444-4.815-4.334-4.815h-50.562c-2.89 0-4.334 1.444-4.334 4.815v143.502c0 .963-.482 1.445-1.927 1.445h-24.077q-1.445 0-1.445-1.445V7.223c0-3.37-1.444-4.815-4.815-4.815h-50.081c-3.371 0-4.816 1.444-4.816 4.815v364.534c0 2.889 1.445 4.334 4.816 4.334h50.08c3.372 0 4.816-1.445 4.816-4.334V211.882c0-1.445.482-1.926 1.445-1.926zM508.998 72.714c0-45.747-31.3-73.196-73.195-73.196s-73.196 27.449-73.196 73.196v233.07c0 45.748 31.3 73.196 73.196 73.196s73.195-27.449 73.195-73.196Zm-59.712 235.96c0 7.704-6.26 13.965-13.483 13.965-7.705 0-13.965-6.26-13.965-13.965V69.824c0-7.704 6.26-13.483 13.965-13.483 7.223 0 13.483 5.779 13.483 13.484ZM637.572 376.09q4.335 0 4.334-4.333l37.08-364.534c0-3.37-1.445-4.815-4.334-4.815H624.57c-3.37 0-4.815 1.444-4.815 4.815L607.716 245.11c0 2.408-3.852 2.408-3.852 0L592.306 7.223c0-3.37-1.444-4.815-4.815-4.815H537.41c-3.371 0-4.816 1.444-4.816 4.815l37.561 364.534q0 4.334 4.334 4.334zM707.397 2.408c-3.37 0-4.816 1.444-4.816 4.815v364.534c0 2.889 1.445 4.334 4.816 4.334H835.97q4.335 0 4.334-4.334v-49.118q0-4.334-4.334-4.334h-72.233c-.963 0-1.444-.482-1.444-1.927V211.882c0-1.445.481-1.926 1.444-1.926h56.823q4.334 0 4.334-4.334v-48.637c0-3.37-1.445-4.815-4.334-4.815h-56.823q-1.444 0-1.444-1.445V62.12q0-1.445 1.444-1.445h72.233c2.89 0 4.334-1.444 4.334-4.815V7.223c0-3.37-1.445-4.815-4.334-4.815zM1009.81 7.223c0-3.37-1.444-4.815-4.334-4.815h-50.562c-2.89 0-4.334 1.444-4.334 4.815v301.45c0 7.705-6.26 13.966-13.484 13.966-7.705 0-13.965-6.26-13.965-13.965V7.224c0-3.372-1.444-4.816-4.334-4.816h-50.562c-1.445 0-2.89 1.444-4.334 4.815v298.561c0 44.784 30.819 73.196 72.714 73.196s73.195-27.449 73.195-73.196z"/></g></svg>