<svg xmlns="http://www.w3.org/2000/svg" width="857" height="483.036" viewBox="0 0 857 483.036"><g fill="#ff0b4f"><path d="M114.609 376.09q4.335 0 4.334-4.333l37.08-364.534c0-3.37-1.445-4.815-4.335-4.815h-50.08c-3.372 0-4.816 1.444-4.816 4.815L84.752 245.11c0 2.408-3.852 2.408-3.852 0L69.343 7.223c0-3.37-1.444-4.815-4.815-4.815H14.446c-3.37 0-4.815 1.444-4.815 4.815l37.56 364.534q0 4.334 4.335 4.334zM238.849 7.223c0-3.37-1.445-4.815-4.334-4.815h-50.563c-2.89 0-4.334 1.444-4.334 4.815v364.534q0 4.334 4.334 4.334h50.563q4.334 0 4.334-4.334ZM321.675 376.09c3.371 0 4.816-1.444 4.816-4.333V211.882c0-1.445.481-1.926 1.445-1.926h12.038c7.705 0 13.965 6.26 13.965 13.965v147.836q0 4.334 4.334 4.334h50.563q4.335 0 4.334-4.334V226.329c0-19.744-7.705-34.672-23.596-45.266-1.445-.482-2.408-1.926-2.408-3.853 0-1.444.482-2.889 1.926-3.37 15.892-10.595 24.078-25.523 24.078-45.266V56.823c0-14.928-5.297-27.93-15.891-38.524S374.164 2.408 359.236 2.408h-87.642c-3.37 0-4.815 1.444-4.815 4.815v364.534c0 2.889 1.444 4.334 4.815 4.334Zm32.264-237.404c0 7.224-6.26 13.484-13.965 13.484h-12.038q-1.445 0-1.445-1.445V62.12q0-1.445 1.445-1.445h12.038c7.705 0 13.965 5.779 13.965 13.484ZM587.491 72.714c0-45.747-31.3-73.196-73.196-73.196-41.894 0-73.195 27.449-73.195 73.196v233.07c0 45.748 31.3 73.196 73.195 73.196s73.196-27.449 73.196-73.196Zm-59.712 235.96c0 7.704-6.26 13.965-13.484 13.965-7.704 0-13.965-6.26-13.965-13.965V69.824c0-7.704 6.26-13.483 13.965-13.483 7.224 0 13.484 5.779 13.484 13.484ZM761.33 7.223c0-3.37-1.444-4.815-4.333-4.815h-50.563c-2.89 0-4.334 1.444-4.334 4.815v301.45c0 7.705-6.26 13.966-13.483 13.966-7.705 0-13.965-6.26-13.965-13.965V7.224c0-3.372-1.445-4.816-4.334-4.816h-50.563c-1.445 0-2.89 1.444-4.334 4.815v298.561c0 44.784 30.82 73.196 72.714 73.196 41.895 0 73.196-27.449 73.196-73.196z"/></g></svg>