<svg xmlns="http://www.w3.org/2000/svg" width="244.762" height="66.169" viewBox="0 0 244.762 66.169"><g fill="#ff0b4f"><path d="M35.05 32.858C35.05 13.818 31.83.27 18.946.27 5.116.27 1.042 14.196 1.042 33.805c0 19.04 3.316 32.587 16.294 32.587 13.735 0 17.714-13.925 17.714-33.534m-12.504 1.42c0 12.316-1.326 21.789-4.453 21.789-3.694 0-4.547-9.473-4.547-23.683 0-12.315 1.327-21.788 4.547-21.788 3.505 0 4.453 9.473 4.453 23.683"/><path/><path d="M79.668 11.828V1.123H51.912v10.705h7.768V65.54h12.315V11.828ZM110.171 65.54V54.93H97.288V37.784h9.757V27.553h-9.757V11.638h12.315V1.123H85.352V65.54ZM160.094 65.54l-2.747-64.417h-12.884l-6.062 34.482c-.38 2.084-.664 7.673-.664 7.673s-.189-5.684-.663-7.768l-6.536-34.387h-12.883l-3.126 64.417h10.988l.38-31.924V26.51s.568 6.252.757 7.105l5.873 31.924h9l5.589-31.64c.094-.853.852-7.2.852-7.2s.095 6.347.095 7.295l.379 31.545ZM197.986 19.88c0-11.936-5.495-19.23-16.2-19.23-7.104 0-14.493.473-14.493.473V65.54h11.936V42.994h2.179c9.662 0 16.578-8.62 16.578-23.114m-12.031 1.137c0 7.389-2.084 11.84-5.494 11.84h-1.232V10.313h1.326c3.695 0 5.4 4.168 5.4 10.705M236.92 32.858c0-19.04-3.221-32.587-16.104-32.587-13.83 0-17.904 13.925-17.904 33.534 0 19.04 3.315 32.587 16.293 32.587 13.736 0 17.715-13.925 17.715-33.534m-12.505 1.42c0 12.316-1.326 21.789-4.452 21.789-3.694 0-4.547-9.473-4.547-23.683 0-12.315 1.326-21.788 4.547-21.788 3.505 0 4.452 9.473 4.452 23.683"/></g></svg>